<?xml version="1.0" encoding="utf-8"?>
<svg xmlns="http://www.w3.org/2000/svg" viewBox="0 0 297.235 253.279" xmlns:bx="https://boxy-svg.com" width="297.235px" height="253.279px"><defs><bx:export><bx:file format="svg"/></bx:export></defs><g id="group-1" transform="matrix(3.797451, 0, 0, 3.797451, -2183.284456, -791.64967)" style=""><title>PuffPixel</title><g id="group-2" transform="matrix(1, 0, 0, 1, 576.093637, 208.671527)"><path id="path-1" d="M73,35.7c0,15.21-15.67,27.54-35,27.54S3,50.91,3,35.7C3,26.27,9,17.94,18.22,13S33.18,3,38,3s8.94,4.13,19.78,10C67,17.94,73,26.27,73,35.7Z" style="paint-order: fill; fill: rgb(97, 78, 53);"/><path id="path-2" data-name="Bottom Shadow" d="M73,35.7a21.67,21.67,0,0,0-.8-5.78c-2.73,33.3-43.35,34.9-59.32,24.94A40,40,0,0,0,38,63.24C57.3,63.24,73,50.89,73,35.7Z" style="fill: rgb(74, 54, 26);"/><path id="path-3" d="M 36.976 17.78 C 37.015 29.426 34.094 40.524 28.972 48.176 C 28.574 48.785 28.887 49.955 29.399 49.614 C 34.189 46.421 40.658 36.866 37.928 17.585 C 37.814 16.488 36.976 16.781 36.976 17.78 Z M 40.203 17.78 C 43.723 27.627 44.558 39.62 42.491 50.613 C 42.321 51.466 42.932 52.197 43.273 51.491 C 46.387 44.666 49.102 31.113 40.97 16.488 C 40.558 15.854 39.918 16.829 40.203 17.683 L 40.203 17.78 Z M 44.126 17.366 C 49.638 24.054 53.189 34.509 53.864 46.031 C 53.821 46.645 54.182 47.108 54.514 46.867 C 54.653 46.764 54.755 46.552 54.788 46.299 C 56.096 37.792 55.357 23.289 44.595 15.757 C 44.027 15.367 43.657 16.683 44.126 17.268 L 44.126 17.366 Z M 17.884 42.716 C 24.437 39.359 29.848 31.381 32.768 20.778 C 33.024 19.901 33.834 20.242 33.706 21.217 C 31.247 40.717 23.016 44.787 17.898 44.251 C 17.358 44.276 17.372 42.984 17.884 42.716 Z" style="fill-rule: evenodd; fill: rgb(185, 149, 100);"/></g></g></svg>