<?xml version="1.0" encoding="utf-8"?>
<svg xmlns="http://www.w3.org/2000/svg" viewBox="5.1605 6.4908 556.8035 100" width="556.803px" height="100px" preserveAspectRatio="none"><g id="group-1" transform="matrix(1.7857139110565183, 0, 0, 1.6598961353302002, -865.8723273556279, -260.4947548582368)" style="pointer-events: none;"><title>PuffPixel</title><g id="group-2" transform="matrix(1, 0, 0, 1, 484.77848, 157.844729)" style="pointer-events: none;"><path id="path-1" d="M73,35.7c0,15.21-15.67,27.54-35,27.54S3,50.91,3,35.7C3,26.27,9,17.94,18.22,13S33.18,3,38,3s8.94,4.13,19.78,10C67,17.94,73,26.27,73,35.7Z" style="paint-order: fill; fill: rgb(97, 78, 53);"/><path id="path-2" data-name="Bottom Shadow" d="M73,35.7a21.67,21.67,0,0,0-.8-5.78c-2.73,33.3-43.35,34.9-59.32,24.94A40,40,0,0,0,38,63.24C57.3,63.24,73,50.89,73,35.7Z" style="fill: rgb(74, 54, 26);"/><path id="path-3" d="M 36.976 17.78 C 37.015 29.426 34.094 40.524 28.972 48.176 C 28.574 48.785 28.887 49.955 29.399 49.614 C 34.189 46.421 40.658 36.866 37.928 17.585 C 37.814 16.488 36.976 16.781 36.976 17.78 Z M 40.203 17.78 C 43.723 27.627 44.558 39.62 42.491 50.613 C 42.321 51.466 42.932 52.197 43.273 51.491 C 46.387 44.666 49.102 31.113 40.97 16.488 C 40.558 15.854 39.918 16.829 40.203 17.683 L 40.203 17.78 Z M 44.126 17.366 C 49.638 24.054 53.189 34.509 53.864 46.031 C 53.821 46.645 54.182 47.108 54.514 46.867 C 54.653 46.764 54.755 46.552 54.788 46.299 C 56.096 37.792 55.357 23.289 44.595 15.757 C 44.027 15.367 43.657 16.683 44.126 17.268 L 44.126 17.366 Z M 17.884 42.716 C 24.437 39.359 29.848 31.381 32.768 20.778 C 33.024 19.901 33.834 20.242 33.706 21.217 C 31.247 40.717 23.016 44.787 17.898 44.251 C 17.358 44.276 17.372 42.984 17.884 42.716 Z" style="fill-rule: evenodd; fill: rgb(185, 149, 100);"/><path d="M 83.661 51.839 L 83.661 9.709 L 101.004 9.709 C 103.577 9.709 105.88 10.321 107.912 11.545 C 109.945 12.769 111.549 14.444 112.724 16.571 C 113.899 18.697 114.486 21.144 114.486 23.913 C 114.486 26.761 113.899 29.299 112.724 31.526 C 111.549 33.753 109.945 35.508 107.912 36.792 C 105.88 38.076 103.577 38.718 101.004 38.718 L 94.738 38.718 L 94.738 51.839 L 83.661 51.839 Z M 94.57 28.427 L 99.101 28.427 C 99.885 28.427 100.575 28.256 101.171 27.915 C 101.768 27.574 102.244 27.083 102.598 26.441 C 102.952 25.799 103.13 25.016 103.13 24.093 C 103.13 23.17 102.952 22.408 102.598 21.807 C 102.244 21.205 101.768 20.753 101.171 20.452 C 100.575 20.151 99.885 20.001 99.101 20.001 L 94.57 20.001 L 94.57 28.427 Z M 130.479 52.501 C 128.241 52.501 126.339 51.989 124.772 50.966 C 123.206 49.943 122.013 48.468 121.192 46.542 C 120.372 44.617 119.961 42.289 119.961 39.561 L 119.961 19.76 L 130.367 19.76 L 130.367 38.417 C 130.367 39.461 130.535 40.343 130.87 41.066 C 131.206 41.788 131.672 42.339 132.269 42.721 C 132.866 43.102 133.593 43.292 134.451 43.292 C 135.122 43.292 135.728 43.192 136.269 42.992 C 136.81 42.791 137.267 42.48 137.64 42.058 C 138.012 41.637 138.311 41.156 138.535 40.614 C 138.759 40.073 138.87 39.481 138.87 38.839 L 138.87 19.76 L 149.276 19.76 L 149.276 51.839 L 139.654 51.839 L 139.094 45.339 L 141.052 44.616 C 140.642 46.101 139.915 47.445 138.87 48.649 C 137.826 49.852 136.577 50.795 135.122 51.478 C 133.668 52.16 132.12 52.501 130.479 52.501 Z M 158.507 51.839 L 158.507 19.038 C 158.507 16.831 158.954 14.825 159.85 13.019 C 160.745 11.214 161.994 9.77 163.598 8.686 C 165.202 7.603 167.066 7.061 169.192 7.061 C 170.684 7.061 172.055 7.282 173.304 7.723 C 174.554 8.165 175.719 8.786 176.801 9.589 L 174.004 17.594 C 173.519 17.433 173.071 17.303 172.661 17.203 C 172.251 17.102 171.896 17.052 171.598 17.052 C 170.964 17.052 170.451 17.172 170.06 17.413 C 169.668 17.654 169.388 18.015 169.22 18.496 C 169.053 18.978 168.969 19.559 168.969 20.241 L 168.969 51.839 L 163.766 51.839 C 162.498 51.839 161.425 51.839 160.549 51.839 C 159.673 51.839 158.992 51.839 158.507 51.839 Z M 154.311 29.751 L 154.311 20.784 L 174.675 20.784 L 174.675 29.751 L 154.311 29.751 Z M 180.493 51.839 L 180.493 19.038 C 180.493 16.831 180.941 14.825 181.836 13.019 C 182.731 11.214 183.98 9.77 185.584 8.686 C 187.188 7.603 189.053 7.061 191.178 7.061 C 192.67 7.061 194.041 7.282 195.29 7.723 C 196.54 8.165 197.705 8.786 198.786 9.589 L 195.989 17.594 C 195.505 17.433 195.057 17.303 194.647 17.203 C 194.237 17.102 193.882 17.052 193.584 17.052 C 192.95 17.052 192.437 17.172 192.045 17.413 C 191.654 17.654 191.374 18.015 191.206 18.496 C 191.038 18.978 190.954 19.559 190.954 20.241 L 190.954 51.839 L 185.752 51.839 C 184.484 51.839 183.411 51.839 182.535 51.839 C 181.659 51.839 180.978 51.839 180.493 51.839 Z M 176.297 29.751 L 176.297 20.784 L 196.661 20.784 L 196.661 29.751 L 176.297 29.751 Z" style="fill: rgb(74, 54, 26); line-height: 42.1335px; text-wrap-mode: nowrap;"/><path d="M 203.043 51.839 L 203.043 9.709 L 218.539 9.709 C 220.59 9.709 222.437 10.251 224.078 11.334 C 225.719 12.418 227.024 13.912 227.994 15.818 C 228.963 17.724 229.448 19.86 229.448 22.228 C 229.448 24.715 228.963 26.932 227.994 28.878 C 227.024 30.824 225.719 32.369 224.078 33.512 C 222.437 34.656 220.59 35.228 218.539 35.228 L 207.407 35.228 L 207.407 51.839 L 203.043 51.839 Z M 207.407 30.653 L 218.763 30.653 C 219.919 30.653 220.954 30.282 221.868 29.54 C 222.782 28.798 223.519 27.795 224.078 26.531 C 224.637 25.267 224.917 23.813 224.917 22.167 C 224.917 20.683 224.637 19.349 224.078 18.165 C 223.519 16.982 222.782 16.039 221.868 15.337 C 220.954 14.634 219.919 14.283 218.763 14.283 L 207.407 14.283 L 207.407 30.653 Z M 237.272 51.839 L 237.272 20.422 L 241.469 20.422 L 241.469 51.839 L 237.272 51.839 Z M 239.342 13.621 C 238.298 13.621 237.506 13.33 236.965 12.749 C 236.424 12.167 236.154 11.374 236.154 10.372 C 236.154 9.368 236.433 8.566 236.993 7.964 C 237.552 7.362 238.335 7.061 239.342 7.061 C 240.35 7.061 241.133 7.352 241.692 7.934 C 242.252 8.516 242.531 9.328 242.531 10.372 C 242.531 11.334 242.252 12.117 241.692 12.719 C 241.133 13.32 240.35 13.621 239.342 13.621 Z M 270.505 51.839 L 260.379 37.815 L 259.876 37.153 L 247.736 20.422 L 253.05 20.422 L 263.008 34.204 L 263.568 34.987 L 275.764 51.839 L 270.505 51.839 Z M 247.512 51.839 L 259.428 35.288 L 261.946 38.538 L 252.547 51.839 L 247.512 51.839 Z M 263.848 36.432 L 261.442 33.242 L 269.946 20.422 L 275.037 20.422 L 263.848 36.432 Z M 291.93 52.44 C 289.021 52.44 286.438 51.758 284.182 50.394 C 281.926 49.03 280.163 47.124 278.895 44.677 C 277.627 42.229 276.993 39.421 276.993 36.251 C 276.993 33.803 277.348 31.586 278.056 29.6 C 278.765 27.614 279.762 25.879 281.049 24.395 C 282.336 22.91 283.874 21.756 285.664 20.934 C 287.454 20.111 289.394 19.7 291.483 19.7 C 293.459 19.7 295.259 20.081 296.881 20.843 C 298.504 21.606 299.902 22.659 301.077 24.003 C 302.252 25.347 303.137 26.942 303.734 28.788 C 304.331 30.634 304.592 32.66 304.517 34.866 L 304.462 36.973 L 280.126 36.973 L 279.51 33.181 L 301.273 33.181 L 300.266 34.204 L 300.266 32.76 C 300.191 31.316 299.799 29.921 299.091 28.577 C 298.382 27.233 297.385 26.14 296.098 25.297 C 294.811 24.455 293.273 24.033 291.483 24.033 C 289.394 24.033 287.585 24.485 286.056 25.388 C 284.527 26.29 283.352 27.624 282.532 29.39 C 281.711 31.155 281.301 33.342 281.301 35.95 C 281.301 38.437 281.748 40.594 282.644 42.42 C 283.539 44.245 284.816 45.66 286.476 46.663 C 288.135 47.666 290.14 48.167 292.49 48.167 C 293.869 48.167 295.24 47.916 296.602 47.415 C 297.963 46.914 299.464 45.921 301.105 44.436 L 303.287 47.686 C 302.429 48.609 301.403 49.421 300.21 50.123 C 299.016 50.825 297.711 51.387 296.294 51.808 C 294.877 52.23 293.422 52.44 291.93 52.44 Z M 310.614 51.839 L 310.614 7.302 L 314.81 7.302 L 314.81 51.839 L 310.614 51.839 Z" style="fill: rgb(185, 149, 100); line-height: 42.1335px; text-wrap-mode: nowrap;"/></g></g></svg>